<svg viewBox="0 0 142.669 21.144" height="21.144" width="142.669" xmlns:xlink="http://www.w3.org/1999/xlink" xmlns="http://www.w3.org/2000/svg" data-sanitized-data-name="Group 41307" data-name="Group 41307" id="Group_41307">
  <defs>
    <clipPath id="clip-path">
      <rect fill="#504bcc" height="21.144" width="142.669" data-sanitized-data-name="Rectangle 4249" data-name="Rectangle 4249" id="Rectangle_4249"></rect>
    </clipPath>
  </defs>
  <g clip-path="url(#clip-path)" transform="translate(0 0)" data-sanitized-data-name="Group 38117" data-name="Group 38117" id="Group_38117">
    <path fill="#504bcc" transform="translate(0 0)" d="M53.969,13.842l-.254.254c-.127.127-3.365,3.365-4.508,6.6H43.556c1.27-4.825,7.492-9.778,7.555-9.841l.317-.254-.317-.254c-.064-.064-5.46-4.571-7.492-9.651h5.714A14.507,14.507,0,0,0,53.65,7.111l.19.19.19-.19A15.81,15.81,0,0,0,58.474.7h5.714c-2.159,5.079-7.555,9.587-7.619,9.651l-.317.254.317.254c.064.064,6.286,4.952,7.682,9.841H58.6c-1.079-3.175-4.444-6.476-4.571-6.6l-.064-.254ZM32.635,21.08a12.814,12.814,0,0,0,7.936-2.54c-.635-.317-2.857-1.4-3.175-1.587-.444.508-1.905,1.016-4.317,1.016-2.984,0-4.254-1.27-4.254-5.587v-.317h.317c4.889,0,8.571-.889,11.747-2.921a8.26,8.26,0,0,0,.254-1.778c0-3.3-2.222-7.111-8.444-7.111-6.6,0-9.841,3.429-9.841,10.412,0,7.3,2.921,10.412,9.778,10.412ZM28.826,9.207c0-3.048.444-6.032,4-6.032,1.841,0,3.111.889,3.111,3.175a4.923,4.923,0,0,1-.381,1.524L35.492,8l-.19.127c-1.778.952-2.73,1.46-6.159,1.46h-.317ZM18.667,10.476C18.667,3.429,15.111,0,7.873,0H0V21.08H7.873c7.238-.063,10.793-3.492,10.793-10.6M5.778,3.238H8.064a4.843,4.843,0,0,1,1.587.254c1.841.952,2.73,2.794,2.73,7.047,0,4.7-1.079,6.6-3.365,7.3l-.952.063H5.778V3.237Zm131.367,17.4V5.969c0-2.1-.254-2.73-1.778-2.73a4.449,4.449,0,0,0-3.809,1.905l-.063.064V20.637h-5.651V5.97c0-2.1-.254-2.73-1.778-2.73a4.449,4.449,0,0,0-3.809,1.905l-.063.064V20.638h-5.587V4.764c0-1.333-1.333-2.6-2.794-3.365,1.143-.317,4.317-1.27,4.508-1.333a7.373,7.373,0,0,1,2.6,1.587l.19.254.254-.19A12.133,12.133,0,0,1,125.209.13c2.413,0,4.127.444,5.143,1.4l.19.127.19-.063a14.077,14.077,0,0,1,5.714-1.46c4.571,0,6.222,1.841,6.222,3.556V20.64h-5.524ZM73.589,10.667c0,5.333,1.46,7.3,4.571,7.3,2.349,0,3.555-.444,4-.952.381.19,2.6,1.333,3.238,1.651a11.518,11.518,0,0,1-7.365,2.476c-6.921,0-10.539-3.619-10.539-10.412C67.494,3.874,71.113.319,78.033.319A11.518,11.518,0,0,1,85.4,2.8c-.635.317-2.857,1.46-3.238,1.651-.444-.508-1.587-.952-3.936-.952-3.175-.127-4.635,1.778-4.635,7.174ZM98.161.191c-6.286,0-10.1,3.873-10.1,10.412s3.746,10.413,10.1,10.413c6.286,0,9.968-3.873,9.968-10.412C108.193,4.128,104.447.192,98.161.192Zm0,17.524c-2.73,0-3.936-1.714-3.936-7.047S95.431,3.62,98.161,3.62c2.667,0,3.809,1.651,3.809,7.047.063,5.4-1.079,7.047-3.809,7.047" data-sanitized-data-name="Path 5871" data-name="Path 5871" id="Path_5871"></path>
  </g>
</svg>
