<svg viewBox="0 0 162.582 39.079" height="39.079" width="162.582" xmlns="http://www.w3.org/2000/svg">
  <path fill="#5020cc" transform="translate(0.035 -4.8)" d="M134.7,36v7.884h-1.918V40.563h-4.308v3.316h-1.951V36h1.951V39h4.308V36Zm-17.329,0v1.626h2.861v6.259h1.9V37.621h2.829V36Zm-3.966,6.226V36h-1.9v7.884h6.4V42.221Zm-3.316,1.658h-2.081l-.553-1.479h-4.048l-.553,1.479h-2.081L103.96,36h2.975Zm-3.137-2.8-1.528-4.1-1.528,4.1Zm-12.322,1.3V40.466h4.357v-1.3H94.63V37.474h4.779V36H92.728v7.884h6.795v-1.5ZM88.729,36V39H84.421V36h-1.9v7.884h1.9V40.563h4.308v3.316h1.9V36Zm64.179-23.132c-1.593,0-2.081.878-2.081,2.162v8.908a3.82,3.82,0,0,1-3.706,3.674c-1.951,0-2.65-1.382-2.65-3.251V15.025c0-1.268-.5-2.162-2.081-2.162-1.593,0-2.081.878-2.081,2.162v10c0,3.544,1.691,5.56,5.169,5.511a6.648,6.648,0,0,0,5.446-2.682v5.007c0,2.682-1.479,3.966-3.674,3.966a3.455,3.455,0,0,1-3.007-1.837,1.815,1.815,0,0,0-1.561-.845,1.512,1.512,0,0,0-1.561,1.561c0,1.837,1.869,3.43,5.9,3.43,4.877,0,8-2.894,8-8.518V15.025C154.988,13.757,154.5,12.863,152.907,12.863ZM138.342,4.8c-4.519,0-7.38,3.5-7.657,8.307h-1.609c-.78,0-1.447.358-1.447,1.17s.666,1.17,1.447,1.17H130.6V28.322c0,1.268.488,2.162,2.081,2.162s2.081-.878,2.081-2.162V15.448h2.048c.91,0,1.528-.5,1.528-1.235,0-.748-.536-1.089-1.479-1.089h-2.081V11.351c0-2.26.6-4.178,2.65-4.178a2.409,2.409,0,0,1,1.772.813,1.841,1.841,0,0,0,1.593.845,1.574,1.574,0,0,0,1.658-1.561C142.438,5.434,140.423,4.8,138.342,4.8ZM122.915,6.182a2.372,2.372,0,0,0-2.5,2.471,2.5,2.5,0,0,0,5.007,0A2.372,2.372,0,0,0,122.915,6.182ZM123,12.863c-1.593,0-2.081.878-2.081,2.162v13.3c0,1.268.488,2.162,2.081,2.162s2.081-.878,2.081-2.162v-13.3C125.077,13.757,124.573,12.863,123,12.863Zm-11.7-.1a7.109,7.109,0,0,0-5.673,2.715c-.13-1.252-.78-2.617-2.308-2.617-1.089,0-1.772.423-1.772,1.8V28.322c0,1.268.5,2.162,2.081,2.162,1.593,0,2.081-.878,2.081-2.162V19.382a4.016,4.016,0,0,1,3.918-3.674c1.951,0,2.65,1.382,2.65,3.251v9.363c0,1.268.488,2.162,2.081,2.162s2.081-.878,2.081-2.162V18.276C116.445,14.732,114.754,12.733,111.292,12.765ZM98.271,21.706c0,5.592-2.861,8.941-8.1,8.973s-8.1-3.4-8.1-8.973c0-5.592,2.861-8.973,8.1-8.973S98.271,16.114,98.271,21.706Zm-4.34,0c0-4.275-.959-6.86-3.739-6.86-2.8,0-3.739,2.585-3.739,6.86s.959,6.86,3.739,6.86S93.931,25.982,93.931,21.706ZM73.416,19.69c-2.406-.488-3.82-1.024-3.82-2.682,0-1.414,1.138-2.195,2.829-2.195a2.785,2.785,0,0,1,2.829,1.593,2.163,2.163,0,0,0,2.162,1.414A1.605,1.605,0,0,0,79.04,16.26c0-2.26-2.65-3.528-6.535-3.528-3.43,0-6.714,1.626-6.714,5.088,0,3.154,1.951,4.519,5.868,5.332,2.829.6,4.178,1.268,4.178,3.007,0,1.528-1.528,2.406-3.251,2.406a3.481,3.481,0,0,1-3.154-1.739,2.215,2.215,0,0,0-2.048-1.447,1.69,1.69,0,0,0-1.772,1.658c0,2.5,2.942,3.641,6.893,3.641,3.43,0,7.136-1.739,7.136-5.446C79.642,22.405,78.13,20.65,73.416,19.69ZM62,12.9c-1.268,0-2.975,1.122-4.178,3.332-.016-1.707-.553-3.365-2.26-3.365a1.57,1.57,0,0,0-1.8,1.8V28.322c0,1.268.5,2.162,2.081,2.162,1.593,0,1.934-.878,1.934-2.162V21.284c0-3.739,1.626-4.779,4.7-4.779a1.56,1.56,0,0,0,1.658-1.626C64.15,13.676,63.451,12.9,62,12.9ZM50.153,27.607a8.133,8.133,0,0,1-6.5,3.072c-5.95,0-8.388-3.576-8.388-8.908s3.04-9.022,7.949-9.022c4.178,0,7.559,2.162,7.559,7.25,0,1.382-.878,1.983-2.26,1.983H39.571v.146c0,3.284,1.057,6.112,4.422,6.112A4.8,4.8,0,0,0,47.7,26.583c.488-.569.845-1.235,1.593-1.235C50.365,25.348,51.08,26.307,50.153,27.607Zm-10.6-7.673h6.21c.6,0,.78-.146.78-.715,0-2.325-1.057-4.308-3.284-4.308C40.757,14.911,39.668,17.057,39.554,19.934Zm-6.795,1.528c0,5.3-2.8,9.233-8.209,9.233a9.873,9.873,0,0,1-3.544-.569v6.828c0,1.268-.488,2.162-2.081,2.162s-2.081-.878-2.081-2.162V20.617c0-4.422,2.65-7.884,7.819-7.884C29.053,12.733,32.759,15.415,32.759,21.462Zm-4.324.423c.065-4.389-1.414-6.828-3.853-6.828s-3.576,1.772-3.576,4.454v4.73c0,2.682,1.138,4.487,3.576,4.487C27.07,28.745,28.517,26.274,28.435,21.885Zm-15.167.179A6.959,6.959,0,0,0,6.7,18.179,7,7,0,0,0,.117,22.064a1.177,1.177,0,0,0,1.869,1.414,7.187,7.187,0,0,1,4.7-1.561,7.1,7.1,0,0,1,4.7,1.561A1.184,1.184,0,0,0,13.268,22.064Zm148.758-8.941-.959,2.243-.943-2.243h-.5v2.861h.423V13.9l.91,2.081h.26l.91-2.081v2.081h.423V13.123Zm-5.121,0V13.5h.878V16h.423V13.5h.878v-.374Z" id="Personify_Health_Logo_Stacked_Sea"></path>
</svg>
